<?xml version="1.0" encoding="UTF-8"?>
<svg version="1.1" xmlns="http://www.w3.org/2000/svg" width="50" height="54">
<path d="M0 0 C16.5 0 33 0 50 0 C50 17.82 50 35.64 50 54 C33.5 54 17 54 0 54 C0 36.18 0 18.36 0 0 Z " fill="#095975" transform="translate(0,0)"/>
<path d="M0 0 C16.5 0 33 0 50 0 C50 17.82 50 35.64 50 54 C33.5 54 17 54 0 54 C0 36.18 0 18.36 0 0 Z M19.76953125 4.3125 C18.96708984 4.58320312 18.16464844 4.85390625 17.33789062 5.1328125 C16.50451172 5.41898437 15.67113281 5.70515625 14.8125 6 C13.96751953 6.28617187 13.12253906 6.57234375 12.25195312 6.8671875 C10.16656271 7.5740995 8.08268853 8.28517491 6 9 C5.91248587 12.87485635 5.85943565 16.74945643 5.8125 20.625 C5.78736328 21.71941406 5.76222656 22.81382813 5.73632812 23.94140625 C5.67137313 31.08645584 6.02206533 35.81572904 11.0859375 41.23046875 C11.84132813 41.87628906 12.59671875 42.52210937 13.375 43.1875 C14.12523437 43.84105469 14.87546875 44.49460938 15.6484375 45.16796875 C20.15218891 48.71406505 20.15218891 48.71406505 25.53515625 50.37890625 C32.15755915 49.36088235 37.62101484 42.66491143 41.80859375 37.7734375 C44.37075427 33.95959856 45.2512374 30.47584826 45.1953125 25.91796875 C45.18564453 24.52094727 45.18564453 24.52094727 45.17578125 23.09570312 C45.15902344 22.13599609 45.14226563 21.17628906 45.125 20.1875 C45.11597656 19.20845703 45.10695312 18.22941406 45.09765625 17.22070312 C45.07417182 14.81354939 45.0413284 12.40690257 45 10 C38.16239023 6.87695801 38.16239023 6.87695801 31.125 4.25 C30.40570312 4.00765625 29.68640625 3.7653125 28.9453125 3.515625 C25.50341362 2.60331445 23.04270614 3.1982277 19.76953125 4.3125 Z " fill="#E0E0E0" transform="translate(0,0)"/>
<path d="M0 0 C3.04790523 3.04790523 2.36846981 6.54363005 2.375 10.625 C2.39949219 11.40746094 2.42398438 12.18992187 2.44921875 12.99609375 C2.48191582 19.56820408 0.80560239 24.65693314 -3.44775391 29.72509766 C-5 31 -5 31 -8 31 C-8.66 28.36 -9.32 25.72 -10 23 C-8.68 23.33 -7.36 23.66 -6 24 C-5.34 22.35 -4.68 20.7 -4 19 C-7.96 19 -11.92 19 -16 19 C-15.67 18.01 -15.34 17.02 -15 16 C-14.34 16 -13.68 16 -13 16 C-12.67 15.01 -12.34 14.02 -12 13 C-11.195625 12.38125 -10.39125 11.7625 -9.5625 11.125 C-6.80069736 8.83472464 -5.9833207 7.39692606 -5 4 C-5 3.34 -5 2.68 -5 2 C-8.27238031 2.02278381 -11.54125903 2.10005764 -14.8125 2.1875 C-16.2056543 2.19620117 -16.2056543 2.19620117 -17.62695312 2.20507812 C-18.51962891 2.23408203 -19.41230469 2.26308594 -20.33203125 2.29296875 C-21.15421143 2.3086792 -21.9763916 2.32438965 -22.82348633 2.34057617 C-25.73506318 2.95676683 -25.73506318 2.95676683 -28 8 C-23.38 8 -18.76 8 -14 8 C-16.98869825 11.55797411 -19.93770956 14.99248048 -23.3125 18.1875 C-25.88248358 20.8770177 -26.37911693 21.58879537 -27 25 C-25.68 25.33 -24.36 25.66 -23 26 C-23 27.65 -23 29.3 -23 31 C-27.05403182 30.07862913 -28.69653132 29.38548724 -31.3125 26.0625 C-33.26368593 22.52145887 -34.12760688 19.9717149 -34.09765625 15.98828125 C-34.09443359 15.23095703 -34.09121094 14.47363281 -34.08789062 13.69335938 C-34.07951172 12.90767578 -34.07113281 12.12199219 -34.0625 11.3125 C-34.05798828 10.51521484 -34.05347656 9.71792969 -34.04882812 8.89648438 C-34.0370585 6.93095743 -34.01912348 4.96546915 -34 3 C-32.3970947 2.18501438 -30.79262722 1.37310073 -29.1875 0.5625 C-28.29417969 0.11003906 -27.40085937 -0.34242187 -26.48046875 -0.80859375 C-17.9274174 -4.91675227 -8.63187571 -3.26692518 0 0 Z " fill="#022F42" transform="translate(41,10)"/>
<path d="M0 0 C16.5 0 33 0 50 0 C50.02291734 7.22660184 50.04284216 14.45307832 50.05493164 21.6796875 C50.05996989 24.13965278 50.0668006 26.59961505 50.07543945 29.05957031 C50.08752723 32.58920025 50.09323329 36.11879069 50.09765625 39.6484375 C50.10281754 40.75367767 50.10797882 41.85891785 50.11329651 42.99765015 C50.11337204 44.01855743 50.11344757 45.03946472 50.11352539 46.09130859 C50.115746 46.99287689 50.11796661 47.89444519 50.12025452 48.82333374 C50 51 50 51 49 53 C48.34 53 47.68 53 47 53 C46.34 51.35 45.68 49.7 45 48 C45 48.66 45 49.32 45 50 C44.01 50.33 43.02 50.66 42 51 C42 49.35 42 47.7 42 46 C42.66 46 43.32 46 44 46 C44 45.34 44 44.68 44 44 C43.01 43.67 42.02 43.34 41 43 C41.35731201 42.57912109 41.71462402 42.15824219 42.08276367 41.72460938 C46.88456975 35.26293007 46.59145857 29.31083989 46.3125 21.5 C46.27866211 19.69402344 46.27866211 19.69402344 46.24414062 17.8515625 C46.18557259 14.89973339 46.10360022 11.95053427 46 9 C45.39309326 8.73227783 44.78618652 8.46455566 44.16088867 8.1887207 C43.3588501 7.83382568 42.55681152 7.47893066 41.73046875 7.11328125 C40.93793701 6.76305908 40.14540527 6.41283691 39.32885742 6.05200195 C37.86931193 5.3926895 36.41833755 4.71367124 34.98144531 4.00634766 C28.74199276 0.94503638 21.65781988 1.70451288 15 3 C12.82109052 4.42159233 12.82109052 4.42159233 11 6 C8.67891331 6.70812814 6.34622853 7.38024152 4 8 C2.79504091 8.98407311 2.79504091 8.98407311 2.88647461 10.85766602 C2.89171143 11.64842529 2.89694824 12.43918457 2.90234375 13.25390625 C2.90556641 14.10791016 2.90878906 14.96191406 2.91210938 15.84179688 C2.92048828 16.73962891 2.92886719 17.63746094 2.9375 18.5625 C2.94201172 19.46419922 2.94652344 20.36589844 2.95117188 21.29492188 C2.96299775 23.53001314 2.9794778 25.76497437 3 28 C2.67 27.34 2.34 26.68 2 26 C1.34 26 0.68 26 0 26 C0 17.42 0 8.84 0 0 Z " fill="#D9D9D9" transform="translate(0,0)"/>
<path d="M0 0 C0.71929687 0.26941406 1.43859375 0.53882813 2.1796875 0.81640625 C7.47378419 2.84878419 7.47378419 2.84878419 9.75 5.125 C10.37565312 9.43312763 10.35291988 13.77712486 10.4375 18.125 C10.50388672 19.31996094 10.57027344 20.51492187 10.63867188 21.74609375 C10.7554004 28.62178034 10.09732395 32.57563902 5.45703125 37.8125 C0.88530616 42.29246118 -4.48317331 47.42419504 -10.9375 48.625 C-15.88627878 47.87801452 -19.90465718 45.52953753 -24.25 43.125 C-24.25 42.465 -24.25 41.805 -24.25 41.125 C-24.806875 40.91875 -25.36375 40.7125 -25.9375 40.5 C-29.22012371 38.54816968 -30.95673246 36.18269006 -33.25 33.125 C-33.25 32.465 -33.25 31.805 -33.25 31.125 C-33.91 31.125 -34.57 31.125 -35.25 31.125 C-35.25 22.215 -35.25 13.305 -35.25 4.125 C-34.59 4.125 -33.93 4.125 -33.25 4.125 C-32.92 3.465 -32.59 2.805 -32.25 2.125 C-30.5078125 1.5625 -30.5078125 1.5625 -28.375 1.125 C-25.29667039 0.48888761 -23.9816047 -0.0539302 -21.25 -1.875 C-13.22517428 -3.38911806 -7.48532788 -2.94751922 0 0 Z M-17.48046875 0.4375 C-18.28291016 0.70820312 -19.08535156 0.97890625 -19.91210938 1.2578125 C-20.74548828 1.54398437 -21.57886719 1.83015625 -22.4375 2.125 C-23.28248047 2.41117187 -24.12746094 2.69734375 -24.99804688 2.9921875 C-27.08343729 3.6990995 -29.16731147 4.41017491 -31.25 5.125 C-31.33751413 8.99985635 -31.39056435 12.87445643 -31.4375 16.75 C-31.46263672 17.84441406 -31.48777344 18.93882813 -31.51367188 20.06640625 C-31.57862687 27.21145584 -31.22793467 31.94072904 -26.1640625 37.35546875 C-25.40867187 38.00128906 -24.65328125 38.64710937 -23.875 39.3125 C-23.12476563 39.96605469 -22.37453125 40.61960938 -21.6015625 41.29296875 C-17.09781109 44.83906505 -17.09781109 44.83906505 -11.71484375 46.50390625 C-5.09244085 45.48588235 0.37101484 38.78991143 4.55859375 33.8984375 C7.12075427 30.08459856 8.0012374 26.60084826 7.9453125 22.04296875 C7.93564453 20.64594727 7.93564453 20.64594727 7.92578125 19.22070312 C7.90902344 18.26099609 7.89226563 17.30128906 7.875 16.3125 C7.86597656 15.33345703 7.85695312 14.35441406 7.84765625 13.34570312 C7.82417182 10.93854939 7.7913284 8.53190257 7.75 6.125 C0.91239023 3.00195801 0.91239023 3.00195801 -6.125 0.375 C-6.84429688 0.13265625 -7.56359375 -0.1096875 -8.3046875 -0.359375 C-11.74658638 -1.27168555 -14.20729386 -0.6767723 -17.48046875 0.4375 Z " fill="#6EE0E9" transform="translate(37.25,3.875)"/>
<path d="M0 0 C0.82741699 0.01047363 1.65483398 0.02094727 2.50732422 0.03173828 C3.40322266 0.03818359 4.29912109 0.04462891 5.22216797 0.05126953 C6.62789062 0.07640625 6.62789062 0.07640625 8.06201172 0.10205078 C9.00689453 0.11107422 9.95177734 0.12009766 10.92529297 0.12939453 C13.26278464 0.15300556 15.59977295 0.18593562 17.93701172 0.22705078 C18.51904297 2.08642578 18.51904297 2.08642578 18.93701172 4.22705078 C17.62451172 6.47705078 17.62451172 6.47705078 15.93701172 8.22705078 C15.27701172 8.22705078 14.61701172 8.22705078 13.93701172 8.22705078 C13.60701172 9.21705078 13.27701172 10.20705078 12.93701172 11.22705078 C11.49951172 12.91455078 11.49951172 12.91455078 9.93701172 14.22705078 C9.27701172 14.22705078 8.61701172 14.22705078 7.93701172 14.22705078 C7.93701172 14.88705078 7.93701172 15.54705078 7.93701172 16.22705078 C7.27701172 16.22705078 6.61701172 16.22705078 5.93701172 16.22705078 C5.93701172 17.21705078 5.93701172 18.20705078 5.93701172 19.22705078 C2.72893618 21.61019261 -0.1267909 22.66473687 -4.06298828 23.22705078 C-3.7030711 18.17898164 -1.01900787 15.70465212 2.49951172 12.41455078 C3.01964844 11.91246094 3.53978516 11.41037109 4.07568359 10.89306641 C5.35389742 9.66175951 6.64428319 8.44311008 7.93701172 7.22705078 C3.64701172 6.89705078 -0.64298828 6.56705078 -5.06298828 6.22705078 C-3.6054282 0.39681044 -3.6054282 0.39681044 0 0 Z " fill="#0CEFF7" transform="translate(18.06298828125,11.77294921875)"/>
<path d="M0 0 C4.29 0.33 8.58 0.66 13 1 C12.67 2.65 12.34 4.3 12 6 C10.68 6.33 9.36 6.66 8 7 C8.33 7.33 8.66 7.66 9 8 C8.6559633 14.19266055 8.6559633 14.19266055 6.375 17 C2.88418213 18.46981805 0.60851044 17.98413921 -3 17 C-5.49646958 14.74512425 -5.95861614 13.60696324 -6.1875 10.25 C-6.125625 9.5075 -6.06375 8.765 -6 8 C-6.66 7.67 -7.32 7.34 -8 7 C-3.375 3 -3.375 3 0 3 C0 2.01 0 1.02 0 0 Z " fill="#288194" transform="translate(24,28)"/>
<path d="M0 0 C0.99 0.33 1.98 0.66 3 1 C2.67 2.65 2.34 4.3 2 6 C6.62 6 11.24 6 16 6 C13.01130175 9.55797411 10.06229044 12.99248048 6.6875 16.1875 C4.11751642 18.8770177 3.62088307 19.58879537 3 23 C4.32 23.33 5.64 23.66 7 24 C7 25.65 7 27.3 7 29 C5.68 28.67 4.36 28.34 3 28 C3 27.01 3 26.02 3 25 C2.34 25 1.68 25 1 25 C-2.68076294 20.58487559 -2.42132789 16.26695363 -2.3125 10.8125 C-2.31572266 9.99330078 -2.31894531 9.17410156 -2.32226562 8.33007812 C-2.26737697 2.26737697 -2.26737697 2.26737697 0 0 Z " fill="#011A28" transform="translate(11,12)"/>
<path d="M0 0 C0.66 0.33 1.32 0.66 2 1 C2.05437005 3.85442753 2.09384974 6.70780076 2.125 9.5625 C2.15013672 10.76229492 2.15013672 10.76229492 2.17578125 11.98632812 C2.22203351 17.65223007 2.06684721 23.21424941 -1.4375 27.9375 C-3 29 -3 29 -6 29 C-6.66 26.36 -7.32 23.72 -8 21 C-6.68 21.33 -5.36 21.66 -4 22 C-3.34 20.35 -2.68 18.7 -2 17 C-5.96 17 -9.92 17 -14 17 C-13.505 15.515 -13.505 15.515 -13 14 C-12.34 14 -11.68 14 -11 14 C-10.67 13.01 -10.34 12.02 -10 11 C-8.34997172 9.64613064 -6.6825613 8.31321858 -5 7 C-4.34 6.01 -3.68 5.02 -3 4 C-2.34 4 -1.68 4 -1 4 C-0.67 2.68 -0.34 1.36 0 0 Z " fill="#021D2C" transform="translate(39,12)"/>
<path d="M0 0 C0.73605469 0.28617187 1.47210938 0.57234375 2.23046875 0.8671875 C4.03216893 1.56914861 5.82909432 2.28334405 7.625 3 C7.625 3.99 7.625 4.98 7.625 6 C5.5616887 5.37768356 3.4993831 4.75203215 1.4375 4.125 C0.28894531 3.77695313 -0.85960937 3.42890625 -2.04296875 3.0703125 C-5.375 2 -5.375 2 -8.046875 0.828125 C-10.6484794 -0.09727791 -11.79702179 -0.05674197 -14.4375 0.625 C-15.5821875 0.91890625 -15.5821875 0.91890625 -16.75 1.21875 C-21.67142976 2.68346124 -26.52071803 4.32610967 -31.375 6 C-31.705 13.26 -32.035 20.52 -32.375 28 C-32.705 28 -33.035 28 -33.375 28 C-33.375 19.42 -33.375 10.84 -33.375 2 C-30.405 1.34 -27.435 0.68 -24.375 0 C-23.385 -0.66 -22.395 -1.32 -21.375 -2 C-13.24710437 -3.53356521 -7.55526828 -3.03303717 0 0 Z " fill="#6EE2E9" transform="translate(37.375,4)"/>
<path d="M0 0 C0.33 0 0.66 0 1 0 C1.11681812 3.54138618 1.187455 7.0822724 1.25 10.625 C1.30027344 12.12353516 1.30027344 12.12353516 1.3515625 13.65234375 C1.43109558 19.65709124 1.15807337 23.31948368 -3 28 C-5.25390625 30.265625 -5.25390625 30.265625 -7.5625 32.25 C-8.32691406 32.91515625 -9.09132813 33.5803125 -9.87890625 34.265625 C-14.49045717 38.03639592 -14.49045717 38.03639592 -18.5 37.75 C-22 37 -22 37 -25 35 C-25.6875 32.375 -25.6875 32.375 -26 30 C-26.99 29.67 -27.98 29.34 -29 29 C-28.34 28.67 -27.68 28.34 -27 28 C-24 29 -24 29 -22.25 31.125 C-20.0238654 33.39525053 -20.0238654 33.39525053 -16.375 32.9375 C-12.74483076 32.3249155 -12.74483076 32.3249155 -11 29 C-10.21625 28.731875 -9.4325 28.46375 -8.625 28.1875 C-5.04566976 26.56827918 -3.9197677 24.35959348 -2 21 C-1.11360611 18.34081834 -0.82010975 16.51935359 -0.68359375 13.76953125 C-0.64169922 12.96708984 -0.59980469 12.16464844 -0.55664062 11.33789062 C-0.51732422 10.50451172 -0.47800781 9.67113281 -0.4375 8.8125 C-0.39431641 7.96751953 -0.35113281 7.12253906 -0.30664062 6.25195312 C-0.20068482 4.16815567 -0.0998498 2.08409897 0 0 Z " fill="#03364B" transform="translate(43,12)"/>
<path d="M0 0 C0 0.99 0 1.98 0 3 C0.99 2.67 1.98 2.34 3 2 C3.48492623 8.42527261 3.48492623 8.42527261 1.3125 11 C-1.60879364 12.26326211 -3.01798647 12.02016252 -6 11 C-8 9 -8 9 -8.3125 5.5 C-8.209375 4.345 -8.10625 3.19 -8 2 C-4.77208445 -0.1519437 -3.71599191 -0.20086443 0 0 Z " fill="#0A3247" transform="translate(28,33)"/>
<path d="M0 0 C0.66 0 1.32 0 2 0 C4.54159329 2.54159329 4.28362748 3.5584786 4.37890625 7.0859375 C4.41306641 8.09914063 4.44722656 9.11234375 4.48242188 10.15625 C4.50884766 11.2184375 4.53527344 12.280625 4.5625 13.375 C4.62257887 15.46625611 4.68623985 17.55741314 4.75390625 19.6484375 C4.77783447 20.57833496 4.8017627 21.50823242 4.82641602 22.46630859 C4.90837609 24.97596343 4.90837609 24.97596343 5.64038086 27.20947266 C5.75905518 27.80034668 5.87772949 28.3912207 6 29 C5.34 29.66 4.68 30.32 4 31 C3.34 29.68 2.68 28.36 2 27 C1.34 27 0.68 27 0 27 C0 18.09 0 9.18 0 0 Z " fill="#63C3D0" transform="translate(2,8)"/>
<path d="M0 0 C0.82741699 0.01047363 1.65483398 0.02094727 2.50732422 0.03173828 C3.40322266 0.03818359 4.29912109 0.04462891 5.22216797 0.05126953 C6.62789062 0.07640625 6.62789062 0.07640625 8.06201172 0.10205078 C9.00689453 0.11107422 9.95177734 0.12009766 10.92529297 0.12939453 C13.26278464 0.15300556 15.59977295 0.18593562 17.93701172 0.22705078 C17.93701172 0.55705078 17.93701172 0.88705078 17.93701172 1.22705078 C13.31701172 1.55705078 8.69701172 1.88705078 3.93701172 2.22705078 C3.93701172 2.88705078 3.93701172 3.54705078 3.93701172 4.22705078 C6.57701172 4.55705078 9.21701172 4.88705078 11.93701172 5.22705078 C8.10158715 7.7840005 6.27798639 7.26750717 1.74951172 6.85205078 C0.47720703 6.74119141 -0.79509766 6.63033203 -2.10595703 6.51611328 C-3.5696875 6.37302734 -3.5696875 6.37302734 -5.06298828 6.22705078 C-4.38519118 2.83806525 -3.86224 0.42507493 0 0 Z " fill="#25B9C6" transform="translate(18.06298828125,11.77294921875)"/>
<path d="M0 0 C5.75 0.75 5.75 0.75 8 3 C8.19976347 5.97588812 8.2780814 8.8382114 8.25 11.8125 C8.25773437 12.62009766 8.26546875 13.42769531 8.2734375 14.25976562 C8.25915942 18.61814903 8.02764323 22.03322177 6 26 C5.18565857 23.14839609 4.88118758 20.63373869 4.90234375 17.671875 C4.90717773 16.47304688 4.90717773 16.47304688 4.91210938 15.25 C4.92048828 14.425 4.92886719 13.6 4.9375 12.75 C4.94201172 11.90953125 4.94652344 11.0690625 4.95117188 10.203125 C4.96292039 8.13538599 4.98085478 6.06768376 5 4 C4.01 4.99 3.02 5.98 2 7 C1.34 4.69 0.68 2.38 0 0 Z " fill="#04354A" transform="translate(35,9)"/>
<path d="M0 0 C6.27 0 12.54 0 19 0 C19 1.32 19 2.64 19 4 C18.67 4.33 18.34 4.66 18 5 C16.1843265 4.93588312 14.3709514 4.79902523 12.5625 4.625 C11.57378906 4.53476562 10.58507812 4.44453125 9.56640625 4.3515625 C7 4 7 4 5 3 C5 2.34 5 1.68 5 1 C3.35 1 1.7 1 0 1 C0 0.67 0 0.34 0 0 Z " fill="#56F8FB" transform="translate(17,13)"/>
<path d="M0 0 C2.57343171 1.07918104 4.66603411 2.44402274 7 4 C7 4.66 7 5.32 7 6 C9.475 6.99 9.475 6.99 12 8 C12 8.66 12 9.32 12 10 C11.34 10 10.68 10 10 10 C10 10.66 10 11.32 10 12 C9.01 12 8.02 12 7 12 C7 11.34 7 10.68 7 10 C5.68 10 4.36 10 3 10 C2.67 10.66 2.34 11.32 2 12 C1.34 12 0.68 12 0 12 C0.66 10.68 1.32 9.36 2 8 C2.66 8 3.32 8 4 8 C3.34 6.68 2.68 5.36 2 4 C1.01 4.495 1.01 4.495 0 5 C0 4.34 0 3.68 0 3 C-0.66 3 -1.32 3 -2 3 C-2 2.34 -2 1.68 -2 1 C-1.34 0.67 -0.68 0.34 0 0 Z " fill="#D0D0D0" transform="translate(6,41)"/>
<path d="M0 0 C1.670625 0.061875 1.670625 0.061875 3.375 0.125 C2.385 0.785 1.395 1.445 0.375 2.125 C-0.16125 2.599375 -0.6975 3.07375 -1.25 3.5625 C-3.625 5.125 -3.625 5.125 -12.625 8.125 C-12.955 15.385 -13.285 22.645 -13.625 30.125 C-13.955 30.125 -14.285 30.125 -14.625 30.125 C-14.625 21.545 -14.625 12.965 -14.625 4.125 C-11.655 3.465 -8.685 2.805 -5.625 2.125 C-3.625 0.125 -3.625 0.125 0 0 Z " fill="#80E6EA" transform="translate(18.625,1.875)"/>
<path d="M0 0 C3.16814889 0.41843476 6.03978239 1.2632608 9.0703125 2.2734375 C9.0703125 2.9334375 9.0703125 3.5934375 9.0703125 4.2734375 C2.4703125 4.2734375 -4.1296875 4.2734375 -10.9296875 4.2734375 C-5.26272241 -0.26013457 -5.26272241 -0.26013457 0 0 Z " fill="#011F32" transform="translate(26.9296875,7.7265625)"/>
<path d="M0 0 C0.33 0 0.66 0 1 0 C1.11681812 3.54138618 1.187455 7.0822724 1.25 10.625 C1.30027344 12.12353516 1.30027344 12.12353516 1.3515625 13.65234375 C1.43124374 19.66827749 1.11938808 23.27525382 -3 28 C-3.53882813 28.62648438 -4.07765625 29.25296875 -4.6328125 29.8984375 C-8.77777778 34 -8.77777778 34 -11 34 C-9.33556574 30.34304587 -7.14871282 27.80023806 -4.4375 24.87890625 C-0.62960435 19.9017383 -0.60332716 14.71438572 -0.375 8.6875 C-0.31699219 7.43356445 -0.31699219 7.43356445 -0.2578125 6.15429688 C-0.16404841 4.10320741 -0.08095755 2.05163485 0 0 Z " fill="#075874" transform="translate(43,12)"/>
<path d="M0 0 C3.63526326 0.86864116 7.06910163 2.00516997 10.58203125 3.28125 C11.81566406 3.7246875 13.04929687 4.168125 14.3203125 4.625 C17.26953125 5.78125 17.26953125 5.78125 18.26953125 6.78125 C18.35638728 8.34297745 18.37655344 9.90854344 18.3671875 11.47265625 C18.36396484 12.41689453 18.36074219 13.36113281 18.35742188 14.33398438 C18.34904297 15.32720703 18.34066406 16.32042969 18.33203125 17.34375 C18.32751953 18.34083984 18.32300781 19.33792969 18.31835938 20.36523438 C18.30653132 22.83729849 18.29004974 25.30924518 18.26953125 27.78125 C17.93953125 27.78125 17.60953125 27.78125 17.26953125 27.78125 C17.26953125 21.51125 17.26953125 15.24125 17.26953125 8.78125 C13.63253308 7.32645073 10.03718234 5.9728745 6.33203125 4.71875 C5.33300781 4.37714844 4.33398438 4.03554687 3.3046875 3.68359375 C0.29944134 2.79014219 -2.63041353 2.22939509 -5.73046875 1.78125 C-2.73046875 -0.21875 -2.73046875 -0.21875 0 0 Z " fill="#197D9A" transform="translate(26.73046875,3.21875)"/>
<path d="M0 0 C0.66 0 1.32 0 2 0 C2.94137255 2.82411765 3.11725382 4.52918032 3.09765625 7.44921875 C3.09443359 8.29677734 3.09121094 9.14433594 3.08789062 10.01757812 C3.07951172 10.89865234 3.07113281 11.77972656 3.0625 12.6875 C3.05798828 13.58017578 3.05347656 14.47285156 3.04882812 15.39257812 C3.03704983 17.59511987 3.02060164 19.79752599 3 22 C2.67 21.34 2.34 20.68 2 20 C1.34 20 0.68 20 0 20 C0 13.4 0 6.8 0 0 Z " fill="#D8D8D8" transform="translate(0,6)"/>
<path d="M0 0 C0.66 0 1.32 0 2 0 C2.08696177 3.93736123 2.14037835 7.87447628 2.1875 11.8125 C2.21263672 12.93205078 2.23777344 14.05160156 2.26367188 15.20507812 C2.27333984 16.27822266 2.28300781 17.35136719 2.29296875 18.45703125 C2.3086792 19.44678955 2.32438965 20.43654785 2.34057617 21.45629883 C2 24 2 24 -1 27 C-0.67 18.09 -0.34 9.18 0 0 Z " fill="#74EEF3" transform="translate(45,9)"/>
<path d="M0 0 C1.32 0.66 2.64 1.32 4 2 C2.61240749 3.61130023 1.21454377 5.21375841 -0.1875 6.8125 C-0.96480469 7.70582031 -1.74210937 8.59914063 -2.54296875 9.51953125 C-4.89417119 11.8931617 -7.06791184 13.43240047 -10 15 C-10.33 14.01 -10.66 13.02 -11 12 C-10.45730469 11.55269531 -9.91460937 11.10539062 -9.35546875 10.64453125 C-5.51120516 7.39595535 -2.23667322 4.61313852 0 0 Z " fill="#76DBE3" transform="translate(43,34)"/>
<path d="M0 0 C0.99 0 1.98 0 3 0 C3.35475877 3.81365679 3.2619932 5.58442458 1.1875 8.875 C-1 11 -1 11 -4 11 C-4.66 8.36 -5.32 5.72 -6 3 C-4.68 3.33 -3.36 3.66 -2 4 C-1.34 2.68 -0.68 1.36 0 0 Z " fill="#032739" transform="translate(37,30)"/>
<path d="M0 0 C0.66 0 1.32 0 2 0 C3.125 6.75 3.125 6.75 2 9 C2.66 9 3.32 9 4 9 C5.6875 10.8125 5.6875 10.8125 7 13 C6.67 13.99 6.34 14.98 6 16 C5.34 16 4.68 16 4 16 C4 15.34 4 14.68 4 14 C2.68 13.67 1.36 13.34 0 13 C0 8.71 0 4.42 0 0 Z " fill="#E0E0E0" transform="translate(0,26)"/>
<path d="M0 0 C0.66 0 1.32 0 2 0 C2 0.66 2 1.32 2 2 C2.66 2 3.32 2 4 2 C4 5.96 4 9.92 4 14 C3.34 14 2.68 14 2 14 C1.67 14.66 1.34 15.32 1 16 C0.67 10.72 0.34 5.44 0 0 Z " fill="#C1CDD0" transform="translate(46,8)"/>
<path d="M0 0 C0.66 0 1.32 0 2 0 C2.02696365 1.79158489 2.04637917 3.58328473 2.0625 5.375 C2.07410156 6.37273438 2.08570313 7.37046875 2.09765625 8.3984375 C2 11 2 11 1 13 C0.01 13 -0.98 13 -2 13 C-1.85915204 11.20793453 -1.71216299 9.41635083 -1.5625 7.625 C-1.48128906 6.62726562 -1.40007813 5.62953125 -1.31640625 4.6015625 C-1 2 -1 2 0 0 Z " fill="#D0D5D6" transform="translate(48,22)"/>
<path d="M0 0 C0.66 0.33 1.32 0.66 2 1 C1.52 7.36 1.52 7.36 -0.625 10 C-4.04776185 11.44116288 -6.44605372 10.85557966 -10 10 C-10.66 9.34 -11.32 8.68 -12 8 C-11.67 7.01 -11.34 6.02 -11 5 C-10.1646875 6.0209375 -10.1646875 6.0209375 -9.3125 7.0625 C-8.1678125 8.0215625 -8.1678125 8.0215625 -7 9 C-4.29294488 8.85974801 -4.29294488 8.85974801 -2 8 C-1.855625 7.236875 -1.71125 6.47375 -1.5625 5.6875 C-1 3 -1 3 0 0 Z " fill="#2F9AAC" transform="translate(31,35)"/>
<path d="M0 0 C0 0.99 0 1.98 0 3 C-0.61875 3.04125 -1.2375 3.0825 -1.875 3.125 C-2.57625 3.41375 -3.2775 3.7025 -4 4 C-5.3045656 6.99615946 -5.3045656 6.99615946 -6 10 C-6.66 9.67 -7.32 9.34 -8 9 C-8.1875 5.625 -8.1875 5.625 -8 2 C-4.77208445 -0.1519437 -3.71599191 -0.20086443 0 0 Z " fill="#082E42" transform="translate(28,33)"/>
<path d="M0 0 C0 0.66 0 1.32 0 2 C-2.31056137 4.31056137 -3.74324199 4.96255612 -7 5.4375 C-10.62512706 4.90883564 -11.73025981 3.79352638 -14 1 C-13.07767578 1.14308594 -13.07767578 1.14308594 -12.13671875 1.2890625 C-11.32847656 1.39992187 -10.52023438 1.51078125 -9.6875 1.625 C-8.88699219 1.74101563 -8.08648437 1.85703125 -7.26171875 1.9765625 C-4.19937024 2.00829668 -3.0058464 0 0 0 Z " fill="#6FEFF4" transform="translate(33,47)"/>
<path d="M0 0 C2.97 0 5.94 0 9 0 C8.67 1.32 8.34 2.64 8 4 C4 4 4 4 1.75 2 C1.1725 1.34 0.595 0.68 0 0 Z " fill="#10E0F4" transform="translate(28,30)"/>
<path d="M0 0 C0.66 0.33 1.32 0.66 2 1 C1.34 2.32 0.68 3.64 0 5 C-6.4 5.49230769 -6.4 5.49230769 -9.4375 3 C-9.953125 2.34 -10.46875 1.68 -11 1 C-10.37351562 1.09539063 -9.74703125 1.19078125 -9.1015625 1.2890625 C-7.87566406 1.45535156 -7.87566406 1.45535156 -6.625 1.625 C-5.81289063 1.74101563 -5.00078125 1.85703125 -4.1640625 1.9765625 C-3.44992188 1.98429687 -2.73578125 1.99203125 -2 2 C-1.34 1.34 -0.68 0.68 0 0 Z " fill="#AEC8CE" transform="translate(31,49)"/>
<path d="M0 0 C1.32 0 2.64 0 4 0 C4 0.66 4 1.32 4 2 C7.3 1.34 10.6 0.68 14 0 C12.4375 2.0625 12.4375 2.0625 10 4 C6.31864501 3.93541482 3.96838114 3.78095253 1.0625 1.4375 C0.711875 0.963125 0.36125 0.48875 0 0 Z " fill="#106F8E" transform="translate(18,46)"/>
<path d="M0 0 C0.99 0 1.98 0 3 0 C3 0.66 3 1.32 3 2 C2.34 2 1.68 2 1 2 C1 2.66 1 3.32 1 4 C1.66 4.33 2.32 4.66 3 5 C2.34 5 1.68 5 1 5 C1 5.66 1 6.32 1 7 C-0.32 7 -1.64 7 -3 7 C-3 3.47190093 -2.35723489 2.53184488 0 0 Z " fill="#CFCFCF" transform="translate(37,46)"/>
<path d="M0 0 C0.33 0.66 0.66 1.32 1 2 C1.66 2.33 2.32 2.66 3 3 C1.68 4.32 0.36 5.64 -1 7 C-1.99 6.67 -2.98 6.34 -4 6 C-4 5.34 -4 4.68 -4 4 C-3.34 4 -2.68 4 -2 4 C-1.34 2.68 -0.68 1.36 0 0 Z " fill="#E1E1E1" transform="translate(8,44)"/>
<path d="M0 0 C1.32 0 2.64 0 4 0 C4 1.65 4 3.3 4 5 C2.35 4.67 0.7 4.34 -1 4 C-0.67 2.68 -0.34 1.36 0 0 Z " fill="#49ECF4" transform="translate(24,36)"/>
<path d="M0 0 C0.66 0 1.32 0 2 0 C2 0.66 2 1.32 2 2 C2.66 2 3.32 2 4 2 C4 2.66 4 3.32 4 4 C4.66 4.33 5.32 4.66 6 5 C5.34 5 4.68 5 4 5 C4 5.66 4 6.32 4 7 C3.34 7 2.68 7 2 7 C2 6.34 2 5.68 2 5 C1.34 5 0.68 5 0 5 C0 3.35 0 1.7 0 0 Z " fill="#D1D0D0" transform="translate(0,46)"/>
<path d="M0 0 C1.98 0.495 1.98 0.495 4 1 C4 2.32 4 3.64 4 5 C2.35 4.67 0.7 4.34 -1 4 C-0.67 2.68 -0.34 1.36 0 0 Z " fill="#0F4E68" transform="translate(23,40)"/>
<path d="M0 0 C0.33 0 0.66 0 1 0 C1 2.97 1 5.94 1 9 C0.67 8.34 0.34 7.68 0 7 C-0.66 7 -1.32 7 -2 7 C-2 5.35 -2 3.7 -2 2 C-1.34 2 -0.68 2 0 2 C0 1.34 0 0.68 0 0 Z " fill="#CDCECF" transform="translate(2,19)"/>
<path d="M0 0 C2.31 0 4.62 0 7 0 C6.67 0.66 6.34 1.32 6 2 C5.34 2 4.68 2 4 2 C3.67 2.99 3.34 3.98 3 5 C2.34 4.67 1.68 4.34 1 4 C0.375 1.9375 0.375 1.9375 0 0 Z " fill="#0CD4E3" transform="translate(28,18)"/>
<path d="M0 0 C2.31 0 4.62 0 7 0 C7 1.32 7 2.64 7 4 C6.01 4 5.02 4 4 4 C4 3.01 4 2.02 4 1 C2.68 0.67 1.36 0.34 0 0 Z " fill="#8EF7F8" transform="translate(29,13)"/>
</svg>
